<?xml version='1.0' encoding='iso-8859-1'?>
<svg version="1.1" xmlns="http://www.w3.org/2000/svg" viewBox="0 0 137.144 137.144" xmlns:xlink="http://www.w3.org/1999/xlink" enable-background="new 0 0 137.144 137.144">
  <g>
    <g>
      <path d="m109.715,0h-82.286c-15.149,0-27.429,12.28-27.429,27.429v82.286c0,15.149 12.28,27.429 27.429,27.429h82.286c15.149,0 27.429-12.28 27.429-27.429v-82.286c0-15.149-12.28-27.429-27.429-27.429zm13.715,102.858c0,11.361-9.21,20.571-20.571,20.571h-68.573c-11.361,0-20.572-9.21-20.572-20.571v-68.572c0-11.362 9.21-20.572 20.572-20.572h68.572c11.361,0 20.571,9.21 20.571,20.572v68.572zm-96-20.572h13.715v-48h-13.715v48zm75.215-23.142c0.19-12.557-5.407-23.726-6.643-24.858-3.294-2.931-5.089-6.857-13.715-6.857-20.739,0-34.286,6.857-34.286,6.857v41.143c13.286,11.087 14.475,18.121 14.859,19.309 0.501,1.555 0.797,2.599 0.886,3.128 0.089,0.529 0.31,1.586 0.665,3.172 0.235,1.175 0.428,2.012 0.576,2.511 0.147,0.499 0.399,1.248 0.753,2.248 0.355,0.998 0.738,1.717 1.152,2.158 0.413,0.441 0.989,0.851 1.728,1.234 0.738,0.382 1.58,0.573 2.526,0.573 6.735-0.225 10.513-6.012 11.14-13.759 0.379-4.691-0.148-9.067-3.215-13.714h20.358 3.429c3.426,0 3.031-1.574 4.626-3.276 1.773-1.939 2.526-6.914 2.231-10.438l-7.07-9.431z"/>
    </g>
  </g>
</svg>
