<?xml version='1.0' encoding='iso-8859-1'?>
<svg version="1.1" xmlns="http://www.w3.org/2000/svg" viewBox="0 0 137.144 137.144" xmlns:xlink="http://www.w3.org/1999/xlink" enable-background="new 0 0 137.144 137.144">
  <g>
    <g>
      <path d="m27.429,109.715h13.714v-48.001h-13.714v48.001zm75.43-54.858h-23.786c3.066-4.646 3.593-9.023 3.214-13.714-0.628-7.747-4.406-13.535-11.14-13.759-0.946,0-1.788,0.191-2.526,0.573-0.74,0.382-1.315,0.793-1.728,1.233-0.414,0.441-0.797,1.161-1.152,2.158-0.355,1-0.607,1.748-0.753,2.247-0.148,0.5-0.341,1.337-0.576,2.511-0.355,1.586-0.576,2.644-0.665,3.172-0.089,0.529-0.385,1.572-0.886,3.128-0.383,1.188-1.572,8.221-14.859,19.308v41.144c0,0 13.547,6.857 34.286,6.857 8.626,0 10.42-3.927 13.714-6.857 1.236-1.133 6.833-12.301 6.643-24.858l7.072-9.429c0.295-3.524-0.458-8.499-2.231-10.438-1.596-1.702-1.201-3.276-4.627-3.276zm6.856-54.857h-82.286c-15.149,0-27.429,12.28-27.429,27.429v82.286c0,15.149 12.28,27.429 27.429,27.429h82.286c15.149,0 27.429-12.28 27.429-27.429v-82.286c0-15.149-12.28-27.429-27.429-27.429zm13.715,102.858c0,11.361-9.21,20.571-20.571,20.571h-68.573c-11.361,0-20.572-9.21-20.572-20.571v-68.572c0-11.362 9.21-20.572 20.572-20.572h68.572c11.361,0 20.571,9.21 20.571,20.572v68.572z"/>
    </g>
  </g>
</svg>
