<?xml version='1.0' encoding='iso-8859-1'?>
<svg version="1.1" xmlns="http://www.w3.org/2000/svg" viewBox="0 0 137.145 137.145" xmlns:xlink="http://www.w3.org/1999/xlink" enable-background="new 0 0 137.145 137.145">
  <g>
    <g>
      <path d="M68.572,48V27.428L27.429,61.715l41.143,34.286V75.429c0,0,15.191-3.106,24,5.143    c14.632,13.701,10.286,29.143,10.286,29.143s10.216-20.402,4.286-36.001C98.985,52.254,68.572,48,68.572,48z M109.715,0H27.429    C12.281,0,0,12.281,0,27.428v82.287c0,15.148,12.28,27.429,27.429,27.429h82.286c15.149,0,27.429-12.281,27.429-27.429V27.428    C137.144,12.281,124.864,0,109.715,0z M123.43,102.858c0,11.361-9.21,20.572-20.572,20.572H34.286    c-11.361,0-20.572-9.211-20.572-20.572V34.286c0-11.361,9.21-20.572,20.572-20.572h68.572c11.361,0,20.572,9.211,20.572,20.572    V102.858z"/>
    </g>
  </g>
</svg>
